<svg width="28" height="40" viewBox="0 0 28 40" fill="none" xmlns="http://www.w3.org/2000/svg">
<path d="M14 40C13.5333 40 13.1333 39.8667 12.8 39.6C12.4667 39.3333 12.2167 38.9833 12.05 38.55C11.4167 36.6833 10.6167 34.9333 9.65 33.3C8.71667 31.6667 7.4 29.75 5.7 27.55C4 25.35 2.61667 23.25 1.55 21.25C0.516667 19.25 0 16.8333 0 14C0 10.1 1.35 6.8 4.05 4.1C6.78333 1.36667 10.1 0 14 0C17.9 0 21.2 1.36667 23.9 4.1C26.6333 6.8 28 10.1 28 14C28 17.0333 27.4167 19.5667 26.25 21.6C25.1167 23.6 23.8 25.5833 22.3 27.55C20.5 29.95 19.1333 31.95 18.2 33.55C17.3 35.1167 16.55 36.7833 15.95 38.55C15.7833 39.0167 15.5167 39.3833 15.15 39.65C14.8167 39.8833 14.4333 40 14 40ZM14 32.85C14.5667 31.7167 15.2 30.6 15.9 29.5C16.6333 28.4 17.7 26.9333 19.1 25.1C20.5333 23.2333 21.7 21.5167 22.6 19.95C23.5333 18.35 24 16.3667 24 14C24 11.2333 23.0167 8.88333 21.05 6.95C19.1167 4.98333 16.7667 4 14 4C11.2333 4 8.86667 4.98333 6.9 6.95C4.96667 8.88333 4 11.2333 4 14C4 16.3667 4.45 18.35 5.35 19.95C6.28333 21.5167 7.46667 23.2333 8.9 25.1C10.3 26.9333 11.35 28.4 12.05 29.5C12.7833 30.6 13.4333 31.7167 14 32.85ZM14 19C15.4 19 16.5833 18.5167 17.55 17.55C18.5167 16.5833 19 15.4 19 14C19 12.6 18.5167 11.4167 17.55 10.45C16.5833 9.48333 15.4 9 14 9C12.6 9 11.4167 9.48333 10.45 10.45C9.48333 11.4167 9 12.6 9 14C9 15.4 9.48333 16.5833 10.45 17.55C11.4167 18.5167 12.6 19 14 19Z" fill="#FEF7FF"/>
</svg>
