<svg width="100" height="31" viewBox="0 0 100 31" fill="none" xmlns="http://www.w3.org/2000/svg">
<g clip-path="url(#clip0_9_63)">
<path d="M39.7791 22.7408V6.7981H46.6005C48.597 6.7981 50.0925 7.24981 51.0872 8.15325C52.0816 9.04906 52.5788 10.26 52.5788 11.7859C52.5788 12.9399 52.2943 13.9192 51.7249 14.7239C51.1555 15.5286 50.2975 16.1018 49.1513 16.4435C49.842 17.4228 50.5178 18.4401 51.1783 19.4953C51.8388 20.5506 52.4726 21.6324 53.0799 22.7408H50.2901C49.7358 21.6628 49.1513 20.6113 48.5364 19.5865C47.9288 18.5616 47.3328 17.624 46.7484 16.7737C46.7028 16.7737 46.6534 16.7737 46.6005 16.7737H42.1705V22.7408H39.7791ZM46.3727 9.01871H42.1705V14.5987H46.3727C47.6632 14.5987 48.6121 14.3709 49.2196 13.9154C49.8269 13.4523 50.1306 12.75 50.1306 11.8087C50.1306 10.8673 49.8269 10.1689 49.2196 9.71336C48.6121 9.25025 47.6632 9.01871 46.3727 9.01871ZM60.1649 23.0141C59.0717 23.0141 58.1113 22.7636 57.2837 22.2625C56.4638 21.7615 55.8223 21.063 55.3593 20.1672C54.9038 19.2714 54.6761 18.2351 54.6761 17.0584C54.6761 15.8817 54.9038 14.8454 55.3593 13.9496C55.8223 13.0461 56.4638 12.3439 57.2837 11.8428C58.1113 11.3342 59.0717 11.0799 60.1649 11.0799H60.4154C61.4099 11.0799 62.283 11.3266 63.0346 11.8201C63.7936 12.3059 64.3858 13.012 64.8111 13.9382C65.2361 14.8568 65.4488 15.9652 65.4488 17.2634V17.958H57.0332C57.1698 18.8918 57.5191 19.6282 58.0808 20.1672C58.6502 20.6986 59.3906 20.9644 60.3016 20.9644H60.5293C61.0759 20.9644 61.5998 20.8543 62.1008 20.6341C62.6019 20.4064 63.0231 20.1027 63.3647 19.7231L64.7655 21.2035C64.2491 21.7577 63.6114 22.198 62.8524 22.5245C62.1008 22.8509 61.2883 23.0141 60.4154 23.0141H60.1649ZM60.0966 13.1297C59.2841 13.1297 58.6047 13.3991 58.0581 13.9382C57.5191 14.4696 57.1775 15.1984 57.0332 16.1246H63.1597C63.0914 15.2819 62.8143 14.5721 62.3286 13.9951C61.8503 13.4181 61.1821 13.1297 60.3243 13.1297H60.0966ZM71.2109 22.9686C70.0113 22.9686 69.0775 22.6611 68.4096 22.0462C67.7491 21.4236 67.4187 20.6075 67.4187 19.5978C67.4187 18.5957 67.7908 17.7568 68.5347 17.0812C69.2863 16.4055 70.4821 16.0677 72.122 16.0677H75.2194V16.0335C75.2194 14.1204 74.3386 13.1638 72.5775 13.1638C71.841 13.1638 71.2183 13.2967 70.7099 13.5624C70.2088 13.8281 69.8024 14.2001 69.4913 14.6784L67.9313 13.4143C68.417 12.6628 69.0547 12.0858 69.8444 11.6834C70.6416 11.281 71.5449 11.0799 72.5547 11.0799H72.8052C74.2019 11.0799 75.3256 11.4822 76.176 12.287C77.026 13.0917 77.4514 14.295 77.4514 15.8969V22.7408H75.2649V20.8846C74.8245 21.5527 74.259 22.069 73.568 22.4334C72.8771 22.7902 72.0915 22.9686 71.2109 22.9686ZM71.712 20.9416C72.5926 20.9416 73.3252 20.7442 73.9097 20.3494C74.4942 19.947 74.9307 19.4042 75.2194 18.721V17.8555H72.2131C71.3171 17.8555 70.6756 17.9998 70.2884 18.2883C69.9089 18.5691 69.719 18.9525 69.719 19.4384C69.719 20.4405 70.3833 20.9416 71.712 20.9416ZM85.578 23.0141C84.4848 23.0141 83.517 22.775 82.6743 22.2967C81.8316 21.8184 81.1712 21.1352 80.6929 20.2469C80.222 19.3511 79.9868 18.2883 79.9868 17.0584C79.9868 15.8209 80.222 14.7581 80.6929 13.8699C81.1635 12.974 81.8163 12.287 82.6516 11.8087C83.4942 11.3228 84.4697 11.0799 85.578 11.0799H85.8286C86.7094 11.0799 87.5406 11.3076 88.3226 11.7631C89.112 12.211 89.7498 12.8298 90.2357 13.6193L88.4705 14.8492C88.1442 14.3329 87.7532 13.9306 87.2977 13.6421C86.8422 13.346 86.3258 13.198 85.749 13.198H85.5212C84.5342 13.198 83.756 13.5472 83.1866 14.2456C82.6249 14.9365 82.3439 15.8703 82.3439 17.047C82.3439 18.2161 82.6249 19.1499 83.1866 19.8484C83.756 20.5468 84.5342 20.896 85.5212 20.896H85.749C86.3258 20.896 86.8573 20.767 87.3433 20.5088C87.829 20.2507 88.2466 19.9053 88.5959 19.4726L90.2357 20.8619C89.727 21.5299 89.0854 22.0576 88.3111 22.4447C87.5444 22.8243 86.7168 23.0141 85.8286 23.0141H85.578ZM97.8591 22.8889C96.5077 22.8889 95.4792 22.5472 94.7732 21.864C94.0672 21.1807 93.714 20.1292 93.714 18.7096V13.3346H91.4821V11.3532H93.714V7.95964H95.9916V11.3532H99.8293V13.3346H95.9916V18.4021C95.9916 19.2979 96.1776 19.9205 96.5497 20.2697C96.9215 20.6189 97.472 20.7935 98.2008 20.7935C98.5501 20.7935 98.8613 20.7783 99.1346 20.748C99.4155 20.7176 99.7039 20.6797 100 20.6341V22.627C99.6963 22.7029 99.3546 22.7636 98.9751 22.8092C98.5956 22.8623 98.2235 22.8889 97.8591 22.8889Z" fill="#F6F7F9"/>
<path d="M16.722 11.8735C16.0919 11.8735 15.476 12.0606 14.9522 12.4111C14.4283 12.7616 14.02 13.2598 13.7789 13.8427C13.5378 14.4256 13.4747 15.067 13.5976 15.6858C13.7205 16.3046 14.0239 16.873 14.4694 17.3191C14.9149 17.7652 15.4826 18.069 16.1005 18.1921C16.7185 18.3152 17.359 18.252 17.941 18.0106C18.5231 17.7692 19.0207 17.3603 19.3707 16.8357C19.7207 16.3111 19.9076 15.6944 19.9076 15.0635C19.9076 14.2174 19.5719 13.4061 18.9745 12.8078C18.3771 12.2096 17.5668 11.8735 16.722 11.8735Z" fill="#58C4DC"/>
<path d="M33.444 15.0637C33.444 12.546 31.1149 10.3378 27.4067 8.88463C27.4563 8.55738 27.501 8.23367 27.5329 7.91583C27.8986 4.29821 27.028 1.68719 25.0824 0.562437C22.9056 -0.695818 19.8309 0.21745 16.722 2.70797C13.6131 0.21745 10.5384 -0.695818 8.36158 0.562437C6.41602 1.68719 5.54529 4.29821 5.91104 7.91583C5.9429 8.23367 5.98655 8.55856 6.03729 8.88702C5.72818 9.00515 5.42494 9.13039 5.13352 9.26152C1.82287 10.7514 0 12.8142 0 15.0637C0 17.5814 2.32902 19.7895 6.03729 21.2427C5.98655 21.57 5.9429 21.8937 5.91104 22.2115C5.54529 25.8292 6.41602 28.4401 8.36158 29.5649C9.03051 29.9447 9.78846 30.1387 10.5573 30.1274C12.4002 30.1274 14.5523 29.156 16.722 27.4194C18.8906 29.156 21.0438 30.1274 22.8891 30.1274C23.6579 30.1387 24.4158 29.9444 25.0848 29.5649C27.0303 28.4401 27.9011 25.8292 27.5353 22.2115C27.5035 21.8937 27.4585 21.57 27.4091 21.2427C31.1174 19.7919 33.4465 17.5802 33.4465 15.0637H33.444ZM22.8749 1.59503C23.3693 1.58309 23.8579 1.70297 24.2907 1.9424C25.6417 2.72334 26.2481 4.84169 25.9531 7.75399C25.9331 7.95247 25.9095 8.15333 25.8812 8.35534C24.3392 7.89037 22.7603 7.55873 21.1618 7.3641C20.1927 6.07425 19.1151 4.86987 17.9408 3.7642C19.7849 2.33698 21.5157 1.59503 22.8737 1.59503H22.8749ZM22.2402 18.2536C21.6434 19.2907 20.9937 20.2963 20.2934 21.2664C19.1065 21.3884 17.914 21.4492 16.7208 21.4483C15.528 21.4491 14.336 21.3884 13.1494 21.2664C12.451 20.2963 11.8032 19.2907 11.2086 18.2536C10.6119 17.2194 10.0696 16.1546 9.58393 15.0637C10.0696 13.9727 10.6119 12.908 11.2086 11.8737C11.8023 10.8408 12.4481 9.83884 13.1435 8.87165C14.3322 8.74653 15.5267 8.68421 16.722 8.68497C17.9148 8.68427 19.1069 8.74499 20.2934 8.86694C20.9912 9.8356 21.6394 10.8392 22.2354 11.8737C22.8317 12.9082 23.374 13.973 23.8601 15.0637C23.374 16.1544 22.8317 17.2191 22.2354 18.2536H22.2402ZM24.6718 17.0722C25.0463 18.0946 25.3537 19.1405 25.5921 20.203C24.5575 20.526 23.5028 20.7806 22.4348 20.9651C22.8407 20.3523 23.234 19.7147 23.6147 19.0523C23.9911 18.3978 24.3438 17.7373 24.6765 17.0769L24.6718 17.0722ZM16.7232 25.3341C15.925 24.5965 15.1762 23.8072 14.4815 22.9712C15.2153 23.0161 15.9645 23.0421 16.7232 23.0421C17.4818 23.0421 18.2357 23.0161 18.9708 22.9712C18.2739 23.8071 17.5231 24.5964 16.7232 25.3341ZM11.0103 20.9627C9.94205 20.779 8.88695 20.5253 7.85191 20.203C8.08934 19.1422 8.39558 18.0979 8.76865 17.0769C9.09664 17.7373 9.44823 18.3978 9.8305 19.0523C10.2128 19.7068 10.608 20.3519 11.0103 20.9651V20.9627ZM8.76865 13.0493C8.39692 12.0321 8.09149 10.9918 7.85427 9.93496C8.88675 9.61237 9.93903 9.35702 11.0044 9.17056C10.6009 9.78138 10.2057 10.4146 9.8246 11.0751C9.44351 11.7355 9.09546 12.3877 8.76275 13.0493H8.76865ZM16.7161 4.79208C17.5163 5.52945 18.2671 6.31882 18.9637 7.15497C18.2298 7.11008 17.4806 7.0841 16.7161 7.0841C15.9579 7.0841 15.2106 7.10772 14.4744 7.15497C15.1691 6.31901 15.918 5.52967 16.7161 4.79208ZM23.6123 11.0751C23.2301 10.4119 22.8348 9.77389 22.4266 9.16109C23.4974 9.3456 24.5548 9.60057 25.5921 9.92434C25.3541 10.9851 25.0479 12.0293 24.6754 13.0505C24.3474 12.39 23.9946 11.7296 23.6135 11.0762L23.6123 11.0751ZM7.49557 7.75517C7.19707 4.84405 7.80707 2.72452 9.15682 1.94358C9.5898 1.70453 10.0783 1.58467 10.5726 1.59622C11.9306 1.59622 13.6615 2.33816 15.5056 3.76538C14.3305 4.87185 13.2521 6.07699 12.2822 7.36766C10.6841 7.5632 9.10537 7.89361 7.56282 8.35534C7.53569 8.15333 7.51091 7.95365 7.49203 7.75517H7.49557ZM1.5928 15.0637C1.5928 13.5018 3.12661 11.9175 5.78715 10.7159C5.96885 10.6372 6.1541 10.5584 6.34286 10.4796C6.71399 12.0475 7.21724 13.581 7.84719 15.0637C7.21604 16.5493 6.7124 18.086 6.34168 19.6572C3.33543 18.4226 1.5928 16.7118 1.5928 15.0637ZM9.15682 28.1838C7.80707 27.4029 7.19707 25.2833 7.49557 22.3722C7.51445 22.1737 7.53923 21.974 7.56636 21.7708C9.10833 22.2357 10.6872 22.5673 12.2858 22.7621C13.2551 24.0524 14.3327 25.2575 15.5068 26.3643C12.9359 28.3529 10.5868 29.0084 9.16036 28.1838H9.15682ZM25.952 22.3722C26.2469 25.2845 25.6405 27.4029 24.2895 28.1838C22.8643 29.0109 20.514 28.3529 17.9443 26.3643C19.118 25.2575 20.1952 24.0524 21.1641 22.7621C22.7627 22.5675 24.3416 22.2358 25.8835 21.7708C25.9118 21.974 25.9354 22.1737 25.9555 22.3722H25.952ZM27.1094 19.6549C26.7376 18.0846 26.2336 16.5487 25.6027 15.0637C26.2333 13.5779 26.737 12.0412 27.1082 10.4702C30.1087 11.7048 31.856 13.4155 31.856 15.0637C31.856 16.7118 30.1133 18.4226 27.107 19.6572" fill="#58C4DC"/>
<path d="M16.7224 18.4157C18.476 18.4157 19.8975 16.9468 19.8975 15.1347C19.8975 13.3227 18.476 11.8538 16.7224 11.8538C14.9688 11.8538 13.5472 13.3227 13.5472 15.1347C13.5472 16.9468 14.9688 18.4157 16.7224 18.4157Z" fill="#58C4DC"/>
<path d="M33.4448 15.0293C33.4448 12.5206 31.1154 10.318 27.4087 8.87279C28.0078 4.9407 27.2614 1.82366 25.0835 0.569297C23.1386 -0.551884 20.4451 -0.00322215 17.4988 2.11588C17.238 2.30275 16.9792 2.50155 16.7204 2.70829C16.4635 2.50155 16.2048 2.30275 15.946 2.11588C12.9996 -0.00322215 10.3061 -0.553872 8.36117 0.569297C6.18528 1.82366 5.43874 4.9387 6.03995 8.86681C2.32919 10.314 0 12.5186 0 15.0293C0 17.5381 2.32919 19.7407 6.03597 21.1859C5.43676 25.1179 6.1833 28.2351 8.36117 29.4893C9.02011 29.8691 9.76665 30.0579 10.5789 30.0579C12.1615 30.0579 13.999 29.3423 15.946 27.9428C16.2067 27.756 16.4655 27.557 16.7243 27.3504C16.9811 27.557 17.2399 27.756 17.4988 27.9428C19.4457 29.3442 21.2832 30.0579 22.8658 30.0579C23.678 30.0579 24.4246 29.8691 25.0835 29.4893C27.0285 28.3681 27.8984 25.764 27.5342 22.156C27.5024 21.8379 27.4604 21.5159 27.4087 21.1879C31.1176 19.7426 33.4448 17.5401 33.4448 15.0293ZM18.4304 3.40603C20.0867 2.21527 21.6276 1.59505 22.8658 1.59505C23.4013 1.59505 23.8791 1.71035 24.2872 1.94493C25.7126 2.76791 26.3218 5.12757 25.8858 8.34399C24.4525 7.90468 22.8658 7.56873 21.1598 7.35401C20.1385 6.01219 19.0555 4.80156 17.9467 3.76783C18.1079 3.6446 18.2692 3.52134 18.4304 3.40603ZM9.15748 1.94493C9.5656 1.71035 10.0434 1.59505 10.5789 1.59505C11.8171 1.59505 13.358 2.21329 15.0143 3.40603C15.1755 3.52134 15.3368 3.64259 15.498 3.76783C14.3892 4.80156 13.3082 6.01018 12.2869 7.35203C10.5829 7.56672 8.99424 7.90468 7.5609 8.34202C7.12491 5.12757 7.7321 2.76791 9.15748 1.94493ZM1.5926 15.0293C1.5926 13.3853 3.3365 11.6777 6.34454 10.4472C6.68098 11.9043 7.18264 13.445 7.84557 15.0254C7.17866 16.6077 6.677 18.1503 6.34056 19.6095C3.3365 18.379 1.5926 16.6733 1.5926 15.0293ZM15.0143 26.6526C12.6413 28.3583 10.5072 28.8909 9.15748 28.1138C7.7321 27.2908 7.12293 24.9311 7.5589 21.7147C8.99223 22.154 10.5789 22.4899 12.285 22.7046C13.3062 24.0465 14.3892 25.2571 15.498 26.2908C15.3368 26.416 15.1755 26.5373 15.0143 26.6526ZM16.7224 25.2551C14.7316 23.4342 12.8185 21.001 11.204 18.21C10.772 17.4645 9.89858 15.5907 9.54422 14.8651C9.26153 15.541 8.9823 16.161 8.7633 16.821C8.94249 17.153 9.63326 18.6712 9.82438 19.0032C10.2026 19.6572 10.5988 20.2933 11.0069 20.9096C9.8622 20.7088 8.80312 20.4503 7.83959 20.1462C8.38704 17.6772 9.47998 14.8305 11.204 11.8487C11.628 11.1151 12.5493 9.4773 13.0111 8.79744C12.2825 8.89087 11.6974 8.85995 11.0126 9.00107C10.8135 9.32311 10.0155 10.7235 9.82438 11.0555C9.44214 11.7155 9.09179 12.3755 8.7633 13.0315C8.36515 11.9401 8.06056 10.8945 7.84359 9.90849C10.2584 9.14711 13.2744 8.66803 16.7224 8.66803C17.5843 8.66803 19.3846 8.65058 20.1888 8.70823C19.7449 8.12576 19.3642 7.59853 18.9003 7.07771C18.5241 7.06578 17.1066 7.07771 16.7224 7.07771C15.9619 7.07771 15.2174 7.10353 14.4867 7.14727C15.2114 6.2865 15.9619 5.4993 16.7224 4.80353C18.7111 6.62446 20.6262 9.05765 22.2407 11.8487C22.6648 12.5822 23.581 14.2898 23.9413 15.0293C24.226 14.3534 24.4953 13.737 24.7162 13.073C24.5371 12.7391 23.8114 11.3835 23.6203 11.0535C23.2421 10.3995 22.8459 9.76336 22.4378 9.14911C23.5825 9.34986 24.6416 9.60829 25.6051 9.91247C25.0577 12.3814 23.9647 15.2281 22.2407 18.21C21.8167 18.9435 20.6099 20.6233 20.1481 21.3032C20.8767 21.2097 21.6658 21.0701 22.3506 20.9289C22.5497 20.6069 23.4292 19.3351 23.6203 19.0032C24.0005 18.3471 24.3509 17.6911 24.6754 17.0371C25.0616 18.0986 25.3682 19.1423 25.5912 20.1522C23.1784 20.9135 20.1664 21.3906 16.7224 21.3906C15.8604 21.3906 13.8562 21.2774 13.0519 21.2197C13.4959 21.8022 13.974 22.4086 14.4378 22.9295C14.8141 22.9414 16.3381 22.981 16.7224 22.981C17.4828 22.981 18.2274 22.9551 18.958 22.9114C18.2313 23.7721 17.4828 24.5593 16.7224 25.2551ZM24.2872 28.1138C22.9375 28.8931 20.8014 28.3602 18.4304 26.6526C18.2692 26.5373 18.1079 26.416 17.9467 26.2908C19.0555 25.2571 20.1365 24.0485 21.1578 22.7066C22.8599 22.4919 24.4445 22.156 25.8759 21.7186C25.9037 21.9194 25.9316 22.1202 25.9515 22.317C26.2441 25.2233 25.637 27.3345 24.2872 28.1138ZM27.1041 19.6115C26.7617 18.1325 26.2541 16.5918 25.5991 15.0353C26.266 13.4529 26.7677 11.9103 27.1041 10.4512C30.1081 11.6817 31.8522 13.3853 31.8522 15.0293C31.8522 16.6733 30.1103 18.379 27.1041 19.6115Z" fill="#58C4DC"/>
</g>
<defs>
<clipPath id="clip0_9_63">
<rect width="100" height="30.1278" fill="white"/>
</clipPath>
</defs>
</svg>
